<svg width="163" height="38" viewBox="0 0 163 38" fill="none" xmlns="http://www.w3.org/2000/svg">
<g clip-path="url(#clip0_5_2328)">
<path d="M22.8671 17.8487L12.6291 17.8487C14.3089 15.4765 16.7446 13.7682 19.4893 12.9892C19.7347 12.9202 19.9816 12.8573 20.2315 12.8052C21.0555 12.6242 21.9007 12.5276 22.7596 12.52L22.8656 12.52C23.7729 12.52 24.6591 12.6196 25.5134 12.8082C25.7724 12.865 26.0299 12.9294 26.2828 13.003C31.4738 14.5042 35.35 19.327 35.45 25.0284C35.5091 28.4771 34.2291 31.7296 31.8434 34.1877C29.4577 36.6458 26.2707 37.9999 22.8671 37.9999C22.7732 37.9999 22.6823 37.9983 22.5884 37.9968C19.2454 37.9232 16.1205 36.5216 13.7863 34.0512C11.8929 32.047 10.7175 29.5459 10.3812 26.8654C10.3479 26.6017 10.3237 26.3349 10.307 26.0665C11.1613 26.2551 12.0474 26.3548 12.9548 26.3548C12.9896 26.3548 13.026 26.3533 13.0608 26.3533C13.9196 26.3456 14.7664 26.249 15.5889 26.0696C15.6161 26.3287 15.6555 26.5833 15.7116 26.8317C16.425 30.1654 19.3605 32.6696 22.8671 32.6711C22.958 32.6711 23.0535 32.668 23.1458 32.665C26.9448 32.5224 30.0363 29.3972 30.1818 25.5513C30.259 23.5148 29.535 21.5858 28.1429 20.1213C27.1871 19.1154 26.0041 18.4207 24.706 18.0818C24.1153 17.9285 23.4973 17.8487 22.8671 17.8487Z" fill="#695CFF"/>
<path d="M0.371774 13.8449C0.311184 10.3962 1.59113 7.14371 3.97682 4.68558C6.36252 2.22744 9.5495 0.874933 12.9531 0.874932C13.047 0.874932 13.1379 0.874932 13.2318 0.877999C16.5748 0.950072 19.6997 2.35165 22.0339 4.82205C23.9273 6.82781 25.1027 9.32888 25.439 12.0094C25.4723 12.2731 25.495 12.5399 25.5132 12.8083C24.6589 12.6197 23.7728 12.52 22.8655 12.52L22.7594 12.52C21.9006 12.5277 21.0554 12.6243 20.2314 12.8052C20.2041 12.5461 20.1617 12.2915 20.1087 12.0416C19.3952 8.70783 16.4582 6.2037 12.9531 6.2037C12.8607 6.2037 12.7668 6.20523 12.6744 6.2083C8.87545 6.35091 5.78541 9.4761 5.63848 13.322C5.56123 15.3584 6.28527 17.2875 7.6773 18.752C8.6331 19.7579 9.8161 20.4541 11.1112 20.7915C11.243 20.8252 11.3748 20.8559 11.5065 20.8835C11.5565 20.8927 11.6065 20.9019 11.658 20.9111C11.7171 20.9218 11.7792 20.9326 11.8398 20.9418C11.961 20.9602 12.0836 20.9755 12.2063 20.9878C12.2381 20.9924 12.27 20.9954 12.3033 20.997C12.3608 21.0031 12.4184 21.0077 12.4744 21.0108L12.4911 21.0108C12.5396 21.0154 12.588 21.0169 12.638 21.0184C12.6804 21.0215 12.7229 21.023 12.7653 21.023C12.8274 21.0246 12.891 21.0261 12.9531 21.0261L23.1911 21.0261C21.5113 23.3984 19.0741 25.1066 16.3309 25.8841C16.0856 25.9546 15.8387 26.016 15.5887 26.0696C14.7662 26.2491 13.9195 26.3457 13.0606 26.3533C13.0258 26.3533 12.9895 26.3549 12.9546 26.3549C12.0473 26.3549 11.1612 26.2552 10.3069 26.0666C10.2402 26.0528 10.1781 26.0374 10.113 26.0221C10.0297 26.0022 9.94636 25.9822 9.86154 25.9608C9.75399 25.9332 9.64645 25.9025 9.5389 25.8718C7.48645 25.2784 5.64 24.1666 4.15102 22.6868C1.87135 20.4204 0.430848 17.2937 0.371774 13.8449Z" fill="#FF3465"/>
<path d="M105.2 23.3278C105.306 29.4003 100.411 34.3396 94.4093 34.2092C88.6063 34.082 83.9561 29.1534 84.0849 23.2788C84.0955 22.7973 84.1379 22.3249 84.2091 21.8603C84.2091 21.8572 84.2106 21.8542 84.2106 21.8511C84.2197 21.7959 84.2273 21.7407 84.2379 21.6855C84.2394 21.684 84.2379 21.684 84.2379 21.684C84.2394 21.6763 84.2409 21.6686 84.2409 21.6625C84.4499 20.4434 85.5117 19.5632 86.7341 19.5632H91.2192C90.1317 20.5262 89.4455 21.9416 89.4455 23.521C89.4455 26.4929 91.8797 28.8881 94.8409 28.7762C97.5341 28.675 99.729 26.4545 99.8335 23.7296C99.9471 20.7301 97.5796 18.2628 94.6425 18.2628H85.4466C87.2461 15.0441 90.6467 12.865 94.5532 12.8313C100.314 12.7822 105.099 17.4946 105.2 23.3278Z" fill="#292929"/>
<path d="M129.193 23.3278C129.299 29.4003 124.404 34.3396 118.403 34.2092C112.6 34.082 107.949 29.1534 108.078 23.2788C108.089 22.7973 108.131 22.3249 108.202 21.8603C108.202 21.8572 108.204 21.8542 108.204 21.8511C108.213 21.7959 108.221 21.7407 108.231 21.6855C108.233 21.684 108.231 21.684 108.231 21.684C108.233 21.6763 108.234 21.6686 108.234 21.6625C108.443 20.4434 109.505 19.5632 110.727 19.5632H115.213C114.125 20.5262 113.439 21.9416 113.439 23.521C113.439 26.4929 115.873 28.8881 118.834 28.7762C121.527 28.675 123.722 26.4545 123.827 23.7296C123.94 20.7301 121.573 18.2628 118.636 18.2628H109.44C111.239 15.0441 114.64 12.865 118.546 12.8313C124.308 12.7822 129.092 17.4946 129.193 23.3278Z" fill="#292929"/>
<path d="M162.502 23.3278C162.608 29.4003 157.713 34.3396 151.711 34.2092C145.908 34.082 141.258 29.1534 141.387 23.2788C141.398 22.7973 141.44 22.3249 141.511 21.8603C141.511 21.8572 141.513 21.8542 141.513 21.8511C141.522 21.7959 141.529 21.7407 141.54 21.6855C141.541 21.684 141.54 21.684 141.54 21.684C141.541 21.6763 141.543 21.6686 141.543 21.6625C141.752 20.4434 142.814 19.5632 144.036 19.5632H148.521C147.434 20.5262 146.748 21.9416 146.748 23.521C146.748 26.4929 149.182 28.8881 152.143 28.7762C154.836 28.675 157.031 26.4545 157.136 23.7296C157.249 20.7301 154.882 18.2628 151.945 18.2628H142.749C144.548 15.0441 147.949 12.865 151.855 12.8313C157.616 12.7822 162.401 17.4946 162.502 23.3278Z" fill="#292929"/>
<path d="M138.511 4.81897V31.6422C138.511 33.0607 137.374 34.2107 135.973 34.2107H132.07V7.38751C132.07 5.96906 133.206 4.81897 134.607 4.81897H138.511Z" fill="#292929"/>
<path d="M48.3025 19.281L41.8618 25.5436V4.66406H45.32C46.9665 4.66406 48.3025 6.01504 48.3025 7.68344V19.281Z" fill="#292929"/>
<path d="M81.2069 12.8297V16.0316C81.2069 16.0316 80.7616 17.3411 78.8818 18.5771C78.8818 18.5771 75.5039 18.9099 74.5618 21.9323V31.6422C74.5618 33.0606 73.4257 34.2107 72.0246 34.2107H68.1212V15.3983C68.1212 13.9798 69.2572 12.8297 70.6583 12.8297H74.5618V14.8385C75.2464 14.15 76.7612 12.8297 78.341 12.8297C80.4798 12.8297 81.2069 12.8297 81.2069 12.8297Z" fill="#292929"/>
<path d="M65.2462 34.2107H59.7507C58.8177 34.2107 57.9361 33.7783 57.3575 33.0361L51.6212 25.6693L48.3009 28.8666V31.1913C48.3009 32.8597 46.9649 34.2107 45.3184 34.2107H41.8603V27.488L48.2176 21.2959L48.3009 21.2147L52.2028 17.4592L56.129 13.6792C56.6955 13.1333 57.4468 12.8297 58.2284 12.8297H64.9553L55.6064 21.8311L65.2462 34.2107Z" fill="#292929"/>
</g>
<defs>
<clipPath id="clip0_5_2328">
<rect width="162.133" height="37.125" fill="white" transform="translate(0.370361 0.875)"/>
</clipPath>
</defs>
</svg>
